<?xml version="1.0" encoding="utf-8"?>
<!-- Generator: Adobe Illustrator 16.0.0, SVG Export Plug-In . SVG Version: 6.00 Build 0)  -->
<!DOCTYPE svg PUBLIC "-//W3C//DTD SVG 1.1//EN" "http://www.w3.org/Graphics/SVG/1.1/DTD/svg11.dtd">
<svg version="1.1" id="bca70d0a-57dd-451b-a82c-bb6927f27458"
	 xmlns="http://www.w3.org/2000/svg" xmlns:xlink="http://www.w3.org/1999/xlink" x="0px" y="0px" width="798.682px"
	 height="647.008px" viewBox="0 0 798.682 647.008" enable-background="new 0 0 798.682 647.008" xml:space="preserve">
<ellipse fill="#7DDE70" cx="570.947" cy="611.008" rx="151" ry="34"/>
<ellipse fill="none" stroke="#2859BA" stroke-miterlimit="10" cx="584.947" cy="607.02" rx="151" ry="34"/>
<polygon fill="#F2F2F2" points="126.832,0 74.02,103.009 84.681,103.009 84.681,187.009 30.953,187.009 0,247.381 383.53,444.016 
	510.363,196.636 "/>
<rect x="115.681" y="67.009" fill="#2859BA" width="588" height="295"/>
<rect x="198.181" y="173.009" opacity="0.3" fill="#7DDE70" enable-background="new    " width="434" height="1"/>
<rect x="198.681" y="198.009" opacity="0.3" fill="#7DDE70" enable-background="new    " width="434" height="1"/>
<rect x="198.681" y="248.009" opacity="0.3" fill="#7DDE70" enable-background="new    " width="434" height="1"/>
<rect x="198.681" y="270.009" opacity="0.3" fill="#7DDE70" enable-background="new    " width="434" height="1"/>
<rect x="198.681" y="223.009" opacity="0.3" fill="#7DDE70" enable-background="new    " width="434" height="1"/>
<polygon fill="#7DDE70" points="210.722,270.733 209.342,269.285 273.943,207.712 330.889,248.674 376.94,197.618 397.133,214.782 
	452.063,181.824 513.076,222.833 608.837,168.364 609.825,170.102 512.988,225.184 452.002,184.193 396.931,217.235 
	377.124,200.399 331.175,251.343 274.121,210.305 "/>
<circle opacity="0.4" fill="#7DDE70" enable-background="new    " cx="765.182" cy="53.509" r="33.5"/>
<circle opacity="0.4" fill="#7DDE70" enable-background="new    " cx="703.182" cy="69.509" r="23.5"/>
<circle opacity="0.4" fill="#7DDE70" enable-background="new    " cx="674.182" cy="500.508" r="12.5"/>
<circle opacity="0.4" fill="#7DDE70" enable-background="new    " cx="461.182" cy="565.508" r="9.5"/>
<circle opacity="0.4" fill="#7DDE70" enable-background="new    " cx="429.182" cy="439.508" r="12.5"/>
<circle fill="#7DDE70" cx="608.182" cy="173.509" r="13"/>
<path fill="#2859BA" d="M523.714,408.974l-11.021,1.225c0,0-4.898,22.042,0,51.429c4.898,29.389,11.021,58.775,11.021,58.775
	s4.897,95.512,7.347,96.736s24.49,8.572,25.715,1.225S558,443.26,558,443.26l17.143,80.816c0,0,2.449,101.635,7.348,101.635
	c4.897,0,20.816-1.225,20.816-9.797c0-8.57,3.673-121.225,3.673-121.225s-1.224-83.267-6.122-85.716
	C595.959,406.526,523.714,408.974,523.714,408.974z"/>
<path fill="#2F2E41" d="M533.51,613.465c0,0-11.021-1.225-13.47,0s-6.122,9.797,0,14.695c6.123,4.896,22.041,12.244,26.939,12.244
	c3.396-0.15,6.728-0.982,9.796-2.449l-2.449-20.816L533.51,613.465z"/>
<path fill="#2F2E41" d="M582.49,619.588l1.225,17.143c0,0,15.918,2.449,17.143,0s13.47-8.57,14.694-9.795
	c1.224-1.225,2.448-14.695-4.898-15.92s-9.796,2.449-9.796,2.449L582.49,619.588z"/>
<path fill="#FFB8B8" d="M479.632,306.116c0,0-29.388,28.164-25.715,42.857c3.674,14.695,33.062,57.553,33.062,57.553
	s28.164,14.693,31.837,0c3.674-14.695-19.592-11.021-19.592-11.021l-18.367-44.082l20.816-29.388L479.632,306.116z"/>
<path fill="#FFB8B8" d="M610.945,263.269c0,0,26.771-17.216,26.152-29.043c-0.62-11.828-16.759-49.12-16.759-49.12
	s-12.626-26.249-17.645-15.521c-5.02,10.728,6.597,22.146,6.597,22.146l7.497,36.583l-20.376,19.438L610.945,263.269z"/>
<circle fill="#FFB8B8" cx="544.53" cy="216.728" r="22.041"/>
<path fill="#FFB8B8" d="M533.51,230.197l3.674,23.266l26.938-4.898c0,0-1.225-23.265-1.225-25.714
	C562.897,220.401,533.51,230.197,533.51,230.197z"/>
<path fill="#D0CDE1" d="M532.285,253.463c0,0,30.612-7.347,34.286-4.898c3.674,2.449,22.041,4.898,22.041,4.898l20.816,31.837
	l-6.122,40.408c0,0-1.225,64.899,1.225,75.92c2.448,11.021,15.918,12.244-12.245,14.693c-28.164,2.449-33.062-1.225-52.653,3.674
	c-19.593,4.898-35.511-2.449-30.613-7.347c4.898-4.897,13.47-83.267,3.674-90.613c-9.796-7.347-13.47-45.307-13.47-45.307
	S532.285,259.585,532.285,253.463z"/>
<path fill="#D0CDE1" d="M584.938,257.136l3.674-3.673l7.347-7.347c0,0,23.878,10.408,22.653,14.082
	c-1.225,3.674-9.184,25.103-9.184,25.103l-11.021,3.673L584.938,257.136z"/>
<path fill="#D0CDE1" d="M513.918,279.177l-14.694-2.449c0,0-11.021,12.245-14.693,17.143c-3.674,4.898-11.021,17.143-11.021,17.143
	l25.714,18.367l19.592-20.816L513.918,279.177z"/>
<path fill="#2F2E41" d="M552.223,190.025l-0.227-1.766c-1.498-0.009-2.987,0.226-4.411,0.693c-0.146-1.064-0.053-2.148,0.272-3.173
	c-1.446,0.372-2.824,0.971-4.083,1.775l-0.891-3.223l-12.24,6.033c-4.395,2.166-9.027,4.545-11.539,8.751
	c-2.801,4.689-2.313,10.715-0.398,15.83c1.914,5.115,5.095,9.642,7.645,14.471c0.968,2.077,2.132,4.057,3.475,5.913
	c4.62,5.76,13.614,6.924,20.129,3.447c2.479-1.194,4.455-3.228,5.578-5.74c0.475-1.559,0.847-3.146,1.114-4.753
	c0.806-3.292,1.741-10.086,4.415-12.168c1.176-0.916,3.509,2.122,4.483,0.993c2.505-2.9,1.979-7.372,0.424-10.874
	c-1.494-3.517-3.239-6.922-5.224-10.188C559.904,194.734,552.195,189.813,552.223,190.025z"/>
</svg>
